<?xml version="1.0" encoding="UTF-8" standalone="no"?>
<!DOCTYPE svg PUBLIC "-//W3C//DTD SVG 1.1//EN"
 "http://www.w3.org/Graphics/SVG/1.1/DTD/svg11.dtd">
<!-- Generated by graphviz version 2.38.0 (20140413.2041)
 -->
<!-- Title: G Pages: 1 -->
<svg width="224pt" height="409pt"
 viewBox="0.00 0.00 224.00 409.01" xmlns="http://www.w3.org/2000/svg" xmlns:xlink="http://www.w3.org/1999/xlink">
<g id="graph0" class="graph" transform="scale(1 1) rotate(0) translate(4 405.015)">
<title>G</title>
<polygon fill="white" stroke="none" points="-4,4 -4,-405.015 220,-405.015 220,4 -4,4"/>
<g id="clust1" class="cluster"><title>cluster_0</title>
<polygon fill="lightgrey" stroke="lightgrey" points="8,-64.2146 8,-357.015 98,-357.015 98,-64.2146 8,-64.2146"/>
<text text-anchor="middle" x="53" y="-340.415" font-family="Times,serif" font-size="14.00">process #1</text>
</g>
<g id="clust2" class="cluster"><title>cluster_1</title>
<polygon fill="none" stroke="blue" points="133,-64.2146 133,-357.015 208,-357.015 208,-64.2146 133,-64.2146"/>
<text text-anchor="middle" x="170.5" y="-340.415" font-family="Times,serif" font-size="14.00">process #2</text>
</g>
<!-- a0 -->
<g id="node1" class="node"><title>a0</title>
<ellipse fill="white" stroke="white" cx="63" cy="-306.215" rx="27" ry="18"/>
<text text-anchor="middle" x="63" y="-302.015" font-family="Times,serif" font-size="14.00">a0</text>
</g>
<!-- a1 -->
<g id="node2" class="node"><title>a1</title>
<ellipse fill="white" stroke="white" cx="63" cy="-234.215" rx="27" ry="18"/>
<text text-anchor="middle" x="63" y="-230.015" font-family="Times,serif" font-size="14.00">a1</text>
</g>
<!-- a0&#45;&gt;a1 -->
<g id="edge1" class="edge"><title>a0&#45;&gt;a1</title>
<path fill="none" stroke="black" d="M63,-287.911C63,-280.197 63,-270.927 63,-262.327"/>
<polygon fill="black" stroke="black" points="66.5001,-262.319 63,-252.319 59.5001,-262.319 66.5001,-262.319"/>
</g>
<!-- a2 -->
<g id="node3" class="node"><title>a2</title>
<ellipse fill="white" stroke="white" cx="63" cy="-162.215" rx="27" ry="18"/>
<text text-anchor="middle" x="63" y="-158.015" font-family="Times,serif" font-size="14.00">a2</text>
</g>
<!-- a1&#45;&gt;a2 -->
<g id="edge2" class="edge"><title>a1&#45;&gt;a2</title>
<path fill="none" stroke="black" d="M63,-215.911C63,-208.197 63,-198.927 63,-190.327"/>
<polygon fill="black" stroke="black" points="66.5001,-190.319 63,-180.319 59.5001,-190.319 66.5001,-190.319"/>
</g>
<!-- b3 -->
<g id="node8" class="node"><title>b3</title>
<ellipse fill="lightgrey" stroke="black" cx="168" cy="-90.2146" rx="27" ry="18"/>
<text text-anchor="middle" x="168" y="-86.0146" font-family="Times,serif" font-size="14.00">b3</text>
</g>
<!-- a1&#45;&gt;b3 -->
<g id="edge9" class="edge"><title>a1&#45;&gt;b3</title>
<path fill="none" stroke="black" d="M74.4367,-217.748C92.7409,-192.994 128.75,-144.295 150.366,-115.062"/>
<polygon fill="black" stroke="black" points="153.446,-116.784 156.577,-106.662 147.818,-112.622 153.446,-116.784"/>
</g>
<!-- a3 -->
<g id="node4" class="node"><title>a3</title>
<ellipse fill="white" stroke="white" cx="63" cy="-90.2146" rx="27" ry="18"/>
<text text-anchor="middle" x="63" y="-86.0146" font-family="Times,serif" font-size="14.00">a3</text>
</g>
<!-- a2&#45;&gt;a3 -->
<g id="edge3" class="edge"><title>a2&#45;&gt;a3</title>
<path fill="none" stroke="black" d="M63,-143.911C63,-136.197 63,-126.927 63,-118.327"/>
<polygon fill="black" stroke="black" points="66.5001,-118.319 63,-108.319 59.5001,-118.319 66.5001,-118.319"/>
</g>
<!-- a3&#45;&gt;a0 -->
<g id="edge11" class="edge"><title>a3&#45;&gt;a0</title>
<path fill="none" stroke="black" d="M49.2496,-106.146C41.0392,-116.114 31.381,-129.968 27,-144.215 12.8916,-190.094 12.8916,-206.335 27,-252.215 30.2858,-262.9 36.5399,-273.364 42.9254,-282.133"/>
<polygon fill="black" stroke="black" points="40.354,-284.529 49.2496,-290.283 45.8844,-280.237 40.354,-284.529"/>
</g>
<!-- end -->
<g id="node10" class="node"><title>end</title>
<polygon fill="none" stroke="black" points="133.215,-36.3225 96.7848,-36.3225 96.7848,0.10794 133.215,0.10794 133.215,-36.3225"/>
<polyline fill="none" stroke="black" points="108.785,-36.3225 96.7848,-24.3225 "/>
<polyline fill="none" stroke="black" points="96.7848,-11.8921 108.785,0.10794 "/>
<polyline fill="none" stroke="black" points="121.215,0.10794 133.215,-11.8921 "/>
<polyline fill="none" stroke="black" points="133.215,-24.3225 121.215,-36.3225 "/>
<text text-anchor="middle" x="115" y="-13.9073" font-family="Times,serif" font-size="14.00">end</text>
</g>
<!-- a3&#45;&gt;end -->
<g id="edge12" class="edge"><title>a3&#45;&gt;end</title>
<path fill="none" stroke="black" d="M74.5405,-73.6555C80.8351,-65.1689 88.7878,-54.4471 95.9731,-44.7597"/>
<polygon fill="black" stroke="black" points="98.8828,-46.7118 102.029,-36.5949 93.2605,-42.5417 98.8828,-46.7118"/>
</g>
<!-- b0 -->
<g id="node5" class="node"><title>b0</title>
<ellipse fill="lightgrey" stroke="black" cx="170" cy="-306.215" rx="27" ry="18"/>
<text text-anchor="middle" x="170" y="-302.015" font-family="Times,serif" font-size="14.00">b0</text>
</g>
<!-- b1 -->
<g id="node6" class="node"><title>b1</title>
<ellipse fill="lightgrey" stroke="black" cx="171" cy="-234.215" rx="27" ry="18"/>
<text text-anchor="middle" x="171" y="-230.015" font-family="Times,serif" font-size="14.00">b1</text>
</g>
<!-- b0&#45;&gt;b1 -->
<g id="edge4" class="edge"><title>b0&#45;&gt;b1</title>
<path fill="none" stroke="black" d="M170.247,-287.911C170.357,-280.197 170.49,-270.927 170.613,-262.327"/>
<polygon fill="black" stroke="black" points="174.112,-262.368 170.756,-252.319 167.113,-262.268 174.112,-262.368"/>
</g>
<!-- b2 -->
<g id="node7" class="node"><title>b2</title>
<ellipse fill="lightgrey" stroke="black" cx="173" cy="-162.215" rx="27" ry="18"/>
<text text-anchor="middle" x="173" y="-158.015" font-family="Times,serif" font-size="14.00">b2</text>
</g>
<!-- b1&#45;&gt;b2 -->
<g id="edge5" class="edge"><title>b1&#45;&gt;b2</title>
<path fill="none" stroke="black" d="M171.494,-215.911C171.715,-208.197 171.98,-198.927 172.225,-190.327"/>
<polygon fill="black" stroke="black" points="175.724,-190.415 172.511,-180.319 168.727,-190.215 175.724,-190.415"/>
</g>
<!-- b2&#45;&gt;a3 -->
<g id="edge10" class="edge"><title>b2&#45;&gt;a3</title>
<path fill="none" stroke="black" d="M153.839,-149.022C136.331,-137.88 110.241,-121.277 90.5068,-108.719"/>
<polygon fill="black" stroke="black" points="92.2567,-105.684 81.941,-103.268 88.4985,-111.59 92.2567,-105.684"/>
</g>
<!-- b2&#45;&gt;b3 -->
<g id="edge6" class="edge"><title>b2&#45;&gt;b3</title>
<path fill="none" stroke="black" d="M171.764,-143.911C171.213,-136.197 170.551,-126.927 169.937,-118.327"/>
<polygon fill="black" stroke="black" points="173.425,-118.044 169.222,-108.319 166.443,-118.543 173.425,-118.044"/>
</g>
<!-- b3&#45;&gt;end -->
<g id="edge13" class="edge"><title>b3&#45;&gt;end</title>
<path fill="none" stroke="black" d="M156.238,-73.6555C149.822,-65.1689 141.716,-54.4471 134.393,-44.7597"/>
<polygon fill="black" stroke="black" points="137.043,-42.4613 128.22,-36.5949 131.459,-46.6827 137.043,-42.4613"/>
</g>
<!-- start -->
<g id="node9" class="node"><title>start</title>
<polygon fill="none" stroke="black" points="116,-401.015 76.7627,-383.015 116,-365.015 155.237,-383.015 116,-401.015"/>
<polyline fill="none" stroke="black" points="87.6698,-388.018 87.6698,-378.011 "/>
<polyline fill="none" stroke="black" points="105.093,-370.018 126.907,-370.018 "/>
<polyline fill="none" stroke="black" points="144.33,-378.011 144.33,-388.018 "/>
<polyline fill="none" stroke="black" points="126.907,-396.011 105.093,-396.011 "/>
<text text-anchor="middle" x="116" y="-378.815" font-family="Times,serif" font-size="14.00">start</text>
</g>
<!-- start&#45;&gt;a0 -->
<g id="edge7" class="edge"><title>start&#45;&gt;a0</title>
<path fill="none" stroke="black" d="M106.768,-368.985C99.3462,-358.511 88.7235,-343.519 79.802,-330.928"/>
<polygon fill="black" stroke="black" points="82.5947,-328.815 73.9575,-322.679 76.8832,-332.862 82.5947,-328.815"/>
</g>
<!-- start&#45;&gt;b0 -->
<g id="edge8" class="edge"><title>start&#45;&gt;b0</title>
<path fill="none" stroke="black" d="M125.406,-368.985C132.968,-358.511 143.791,-343.519 152.881,-330.928"/>
<polygon fill="black" stroke="black" points="155.82,-332.836 158.836,-322.679 150.145,-328.738 155.82,-332.836"/>
</g>
</g>
</svg>
