<?xml version="1.0" encoding="UTF-8" standalone="no"?>
<!DOCTYPE svg PUBLIC "-//W3C//DTD SVG 1.1//EN"
 "http://www.w3.org/Graphics/SVG/1.1/DTD/svg11.dtd">
<!-- Generated by graphviz version 2.38.0 (20140413.2041)
 -->
<!-- Title: G Pages: 1 -->
<svg width="620pt" height="234pt"
 viewBox="0.00 0.00 619.51 234.00" xmlns="http://www.w3.org/2000/svg" xmlns:xlink="http://www.w3.org/1999/xlink">
<g id="graph0" class="graph" transform="scale(1 1) rotate(0) translate(4 230)">
<title>G</title>
<polygon fill="white" stroke="none" points="-4,4 -4,-230 615.51,-230 615.51,4 -4,4"/>
<!-- s1 -->
<g id="node1" class="node"><title>s1</title>
<polygon fill="none" stroke="black" points="54,-155 0,-155 0,-119 54,-119 54,-155"/>
<text text-anchor="middle" x="27" y="-132.8" font-family="Times,serif" font-size="14.00">XXX</text>
</g>
<!-- srv -->
<g id="node4" class="node"><title>srv</title>
<polygon fill="none" stroke="black" points="171.979,-103.602 90.0069,-103.602 90.0069,-62.3981 171.979,-62.3981 171.979,-103.602"/>
<text text-anchor="middle" x="130.993" y="-87.2" font-family="Times,serif" font-size="14.00">通信</text>
<text text-anchor="middle" x="130.993" y="-70.4" font-family="Times,serif" font-size="14.00">(サービス)</text>
</g>
<!-- s1&#45;&gt;srv -->
<g id="edge6" class="edge"><title>s1&#45;&gt;srv</title>
<path fill="none" stroke="black" d="M54.0011,-123.234C62.499,-118.735 72.2271,-113.584 81.8215,-108.504"/>
<polygon fill="black" stroke="black" points="83.7347,-111.452 90.9347,-103.679 80.4592,-105.265 83.7347,-111.452"/>
</g>
<!-- s2 -->
<g id="node2" class="node"><title>s2</title>
<polygon fill="none" stroke="black" points="54,-101 0,-101 0,-65 54,-65 54,-101"/>
<text text-anchor="middle" x="27" y="-78.8" font-family="Times,serif" font-size="14.00">YYY</text>
</g>
<!-- s2&#45;&gt;srv -->
<g id="edge9" class="edge"><title>s2&#45;&gt;srv</title>
<path fill="none" stroke="black" d="M54.0011,-83C61.8064,-83 70.6496,-83 79.4738,-83"/>
<polygon fill="black" stroke="black" points="79.7605,-86.5001 89.7605,-83 79.7605,-79.5001 79.7605,-86.5001"/>
</g>
<!-- s3 -->
<g id="node3" class="node"><title>s3</title>
<polygon fill="none" stroke="black" points="54,-47 0,-47 0,-11 54,-11 54,-47"/>
<text text-anchor="middle" x="27" y="-24.8" font-family="Times,serif" font-size="14.00">ZZZ</text>
</g>
<!-- s3&#45;&gt;srv -->
<g id="edge10" class="edge"><title>s3&#45;&gt;srv</title>
<path fill="none" stroke="black" d="M54.0011,-42.7662C62.499,-47.2654 72.2271,-52.4159 81.8215,-57.4956"/>
<polygon fill="black" stroke="black" points="80.4592,-60.7347 90.9347,-62.3206 83.7347,-54.5482 80.4592,-60.7347"/>
</g>
<!-- api -->
<g id="node5" class="node"><title>api</title>
<polygon fill="none" stroke="black" points="274.872,-112.401 208.024,-112.401 208.024,-53.5986 274.872,-53.5986 274.872,-112.401"/>
<text text-anchor="middle" x="241.448" y="-95.6" font-family="Times,serif" font-size="14.00">API</text>
<text text-anchor="middle" x="241.448" y="-78.8" font-family="Times,serif" font-size="14.00">(Tomcat,</text>
<text text-anchor="middle" x="241.448" y="-62" font-family="Times,serif" font-size="14.00">JavaEE)</text>
</g>
<!-- srv&#45;&gt;api -->
<g id="edge7" class="edge"><title>srv&#45;&gt;api</title>
<path fill="none" stroke="black" d="M172.07,-83C180.478,-83 189.374,-83 197.87,-83"/>
<polygon fill="black" stroke="black" points="197.975,-86.5001 207.975,-83 197.975,-79.5001 197.975,-86.5001"/>
</g>
<!-- oracle -->
<g id="node10" class="node"><title>oracle</title>
<polygon fill="none" stroke="black" points="268.448,-36 214.448,-36 214.448,-0 268.448,-0 268.448,-36"/>
<text text-anchor="middle" x="241.448" y="-13.8" font-family="Times,serif" font-size="14.00">Oracle</text>
</g>
<!-- api&#45;&gt;oracle -->
<g id="edge8" class="edge"><title>api&#45;&gt;oracle</title>
<path fill="none" stroke="black" d="M241.448,-53.6421C241.448,-51.165 241.448,-48.6879 241.448,-46.2109"/>
<polygon fill="black" stroke="black" points="244.948,-46.0273 241.448,-36.0273 237.948,-46.0274 244.948,-46.0273"/>
</g>
<!-- web -->
<g id="node6" class="node"><title>web</title>
<polygon fill="none" stroke="black" points="378.386,-151.401 310.751,-151.401 310.751,-92.5986 378.386,-92.5986 378.386,-151.401"/>
<text text-anchor="middle" x="344.568" y="-134.6" font-family="Times,serif" font-size="14.00">Web</text>
<text text-anchor="middle" x="344.568" y="-117.8" font-family="Times,serif" font-size="14.00">(Node.js,</text>
<text text-anchor="middle" x="344.568" y="-101" font-family="Times,serif" font-size="14.00">Koa)</text>
</g>
<!-- web&#45;&gt;api -->
<g id="edge11" class="edge"><title>web&#45;&gt;api</title>
<path fill="none" stroke="black" d="M310.731,-109.335C302.319,-106.091 293.157,-102.557 284.356,-99.163"/>
<polygon fill="black" stroke="black" points="285.589,-95.8875 275,-95.5545 283.07,-102.419 285.589,-95.8875"/>
</g>
<!-- c1 -->
<g id="node7" class="node"><title>c1</title>
<ellipse fill="none" stroke="black" cx="575.804" cy="-112" rx="27" ry="18"/>
<text text-anchor="middle" x="575.804" y="-107.8" font-family="Times,serif" font-size="14.00">PC</text>
</g>
<!-- apache -->
<g id="node9" class="node"><title>apache</title>
<polygon fill="none" stroke="black" points="504.035,-105.602 414.291,-105.602 414.291,-64.3981 504.035,-64.3981 504.035,-105.602"/>
<text text-anchor="middle" x="459.163" y="-89.2" font-family="Times,serif" font-size="14.00">Apache</text>
<text text-anchor="middle" x="459.163" y="-72.4" font-family="Times,serif" font-size="14.00">(mod_proxy)</text>
</g>
<!-- c1&#45;&gt;apache -->
<g id="edge14" class="edge"><title>c1&#45;&gt;apache</title>
<path fill="none" stroke="black" d="M549.991,-106.156C539.43,-103.669 526.671,-100.664 514.127,-97.7093"/>
<polygon fill="black" stroke="black" points="514.695,-94.2474 504.158,-95.3617 513.09,-101.061 514.695,-94.2474"/>
</g>
<!-- c2 -->
<g id="node8" class="node"><title>c2</title>
<ellipse fill="none" stroke="black" cx="575.804" cy="-58" rx="35.9115" ry="18"/>
<text text-anchor="middle" x="575.804" y="-53.8" font-family="Times,serif" font-size="14.00">Tablet</text>
</g>
<!-- c2&#45;&gt;apache -->
<g id="edge15" class="edge"><title>c2&#45;&gt;apache</title>
<path fill="none" stroke="black" d="M543.203,-65.4426C534.158,-67.5729 524.035,-69.9571 514.051,-72.3085"/>
<polygon fill="black" stroke="black" points="513.09,-68.939 504.158,-74.6383 514.695,-75.7526 513.09,-68.939"/>
</g>
<!-- apache&#45;&gt;api -->
<g id="edge12" class="edge"><title>apache&#45;&gt;api</title>
<path fill="none" stroke="black" d="M414.185,-84.4092C402.498,-84.2633 389.884,-84.1158 378.227,-84 347.116,-83.6908 311.995,-83.4347 285.267,-83.259"/>
<polygon fill="black" stroke="black" points="285.119,-79.7581 275.096,-83.1934 285.073,-86.7579 285.119,-79.7581"/>
</g>
<!-- apache&#45;&gt;web -->
<g id="edge13" class="edge"><title>apache&#45;&gt;web</title>
<path fill="none" stroke="black" d="M414.155,-99.4616C405.608,-102.27 396.663,-105.21 388.163,-108.003"/>
<polygon fill="black" stroke="black" points="386.846,-104.752 378.438,-111.199 389.031,-111.402 386.846,-104.752"/>
</g>
<!-- 1 -->
<g id="node11" class="node"><title>1</title>
<text text-anchor="middle" x="27" y="-203.8" font-family="Times,serif" font-size="14.00">1</text>
</g>
<!-- 2 -->
<g id="node12" class="node"><title>2</title>
<text text-anchor="middle" x="130.993" y="-203.8" font-family="Times,serif" font-size="14.00">2</text>
</g>
<!-- 1&#45;&gt;2 -->
<g id="edge1" class="edge"><title>1&#45;&gt;2</title>
<path fill="none" stroke="black" d="M54.0011,-208C69.2281,-208 88.4052,-208 103.685,-208"/>
</g>
<!-- 3 -->
<g id="node13" class="node"><title>3</title>
<text text-anchor="middle" x="241.448" y="-203.8" font-family="Times,serif" font-size="14.00">3</text>
</g>
<!-- 2&#45;&gt;3 -->
<g id="edge2" class="edge"><title>2&#45;&gt;3</title>
<path fill="none" stroke="black" d="M158.247,-208C175.299,-208 197.432,-208 214.436,-208"/>
</g>
<!-- 4 -->
<g id="node14" class="node"><title>4</title>
<text text-anchor="middle" x="344.568" y="-203.8" font-family="Times,serif" font-size="14.00">4</text>
</g>
<!-- 3&#45;&gt;4 -->
<g id="edge3" class="edge"><title>3&#45;&gt;4</title>
<path fill="none" stroke="black" d="M268.489,-208C283.47,-208 302.239,-208 317.264,-208"/>
</g>
<!-- 5 -->
<g id="node15" class="node"><title>5</title>
<text text-anchor="middle" x="459.163" y="-203.8" font-family="Times,serif" font-size="14.00">5</text>
</g>
<!-- 4&#45;&gt;5 -->
<g id="edge4" class="edge"><title>4&#45;&gt;5</title>
<path fill="none" stroke="black" d="M371.683,-208C389.743,-208 413.686,-208 431.8,-208"/>
</g>
<!-- 6 -->
<g id="node16" class="node"><title>6</title>
<text text-anchor="middle" x="575.804" y="-203.8" font-family="Times,serif" font-size="14.00">6</text>
</g>
<!-- 5&#45;&gt;6 -->
<g id="edge5" class="edge"><title>5&#45;&gt;6</title>
<path fill="none" stroke="black" d="M486.177,-208C504.807,-208 529.8,-208 548.497,-208"/>
</g>
</g>
</svg>
